
nColumns=19
nRows=44
DataType=double
version=3
OpenSimVersion=4.4-2022-10-11-798caa840
endheader
time	ground_force_calcn_r_vx	ground_force_calcn_r_vy	ground_force_calcn_r_vz	ground_force_calcn_r_px	ground_force_calcn_r_py	ground_force_calcn_r_pz	ground_force_calcn_r_mx	ground_force_calcn_r_my	ground_force_calcn_r_mz	ground_force_calcn_l_vx	ground_force_calcn_l_vy	ground_force_calcn_l_vz	ground_force_calcn_l_px	ground_force_calcn_l_py	ground_force_calcn_l_pz	ground_force_calcn_l_mx	ground_force_calcn_l_my	ground_force_calcn_l_mz
3.37	-7.81731	515.389	-46.1242	-0.218337	0	-0.425832	0.217065	-14.3109	1.28074	-2.2066	459.894	40.1795	-0.219914	0	-0.890166	-0.0622662	12.9774	1.13379
3.38	-6.82723	512.648	-44.3737	-0.217749	0	-0.425993	0.188482	-14.1529	1.22504	-2.89549	460.339	39.2535	-0.219211	0	-0.890193	-0.0819814	13.0338	1.1114
3.39	-5.84704	509.841	-42.5562	-0.217197	0	-0.426167	0.160684	-14.011	1.16949	-3.53026	460.45	38.3383	-0.218525	0	-0.890248	-0.100395	13.0944	1.09028
3.4	-4.90319	507.035	-40.7185	-0.216675	0	-0.426347	0.134293	-13.8871	1.11524	-4.10118	460.219	37.4235	-0.217856	0	-0.890328	-0.117252	13.1576	1.06993
3.41	-4.01662	504.29	-38.9099	-0.216173	0	-0.426524	0.109771	-13.7818	1.06338	-4.60566	459.659	36.4965	-0.217206	0	-0.890429	-0.13248	13.222	1.04981
3.42	-3.19961	501.659	-37.1748	-0.215687	0	-0.42669	0.0873476	-13.695	1.01485	-5.04468	458.811	35.5446	-0.216574	0	-0.890545	-0.146092	13.287	1.02936
3.43	-2.45602	499.191	-35.5466	-0.215209	0	-0.426841	0.06704060000000001	-13.6261	0.970294	-5.42125	457.734	34.5579	-0.215958	0	-0.89067	-0.158142	13.3524	1.00808
3.44	-1.78409	496.924	-34.0445	-0.21474	0	-0.426975	0.0487356	-13.5744	0.929987	-5.73999	456.499	33.5328	-0.215359	0	-0.890799	-0.168719	13.4182	0.985654
3.45	-1.17942	494.884	-32.6721	-0.214273	0	-0.427093	0.0322666	-13.539	0.893841	-6.00632	455.177	32.4717	-0.214773	0	-0.890927	-0.17793	13.484	0.961933
3.46	-0.638106	493.093	-31.4209	-0.213805	0	-0.427196	0.0174954	-13.5195	0.861493	-6.22541	453.832	31.3826	-0.214199	0	-0.89105	-0.18586	13.5492	0.936928
3.47	-0.158151	491.567	-30.2765	-0.213336	0	-0.427292	0.00434832	-13.5155	0.832443	-6.40129	452.524	30.2778	-0.213635	0	-0.891166	-0.19256	13.6126	0.9108000000000001
3.48	0.2595	490.324	-29.2232	-0.212861	0	-0.427382	-0.00715887	-13.5267	0.806187	-6.53671	451.305	29.1714	-0.21308	0	-0.891273	-0.198044	13.6733	0.88381
3.49	0.610277	489.384	-28.2488	-0.212378	0	-0.42747	-0.0169006	-13.5527	0.782304	-6.6327	450.223	28.0763	-0.212538	0	-0.891368	-0.202277	13.7304	0.856241
3.5	0.887307	488.766	-27.3444	-0.211885	0	-0.427559	-0.0246769	-13.593	0.760474	-6.6887	449.32	27.0021	-0.212012	0	-0.89145	-0.205187	13.7837	0.828335
3.51	1.08328	488.477	-26.504	-0.211378	0	-0.427649	-0.0302642	-13.6468	0.740456	-6.70266	448.634	25.9543	-0.211508	0	-0.891516	-0.206666	13.8329	0.80026
3.52	1.19209	488.505	-25.7218	-0.210856	0	-0.427741	-0.0334627	-13.7127	0.7220299999999999	-6.67222	448.191	24.9364	-0.211032	0	-0.891563	-0.206605	13.8782	0.772156
3.53	1.21025	488.816	-24.9906	-0.210314	0	-0.427831	-0.0341388	-13.7886	0.704937	-6.59686	448.011	23.9508	-0.210585	0	-0.891593	-0.204967	13.9199	0.74416
3.54	1.13799	489.356	-24.2991	-0.20975	0	-0.427921	-0.0322594	-13.8721	0.688823	-6.47986	448.103	22.9997	-0.21017	0	-0.891605	-0.201847	13.9583	0.716439
3.55	0.978658	490.056	-23.6329	-0.209158	0	-0.428009	-0.0278803	-13.9609	0.673262	-6.3312	448.465	22.0877	-0.209786	0	-0.891604	-0.197565	13.9943	0.689246
3.56	0.736525	490.827	-22.9774	-0.208534	0	-0.428092	-0.0210864	-14.0522	0.657834	-6.16831	449.086	21.2223	-0.209429	0	-0.891591	-0.192686	14.0285	0.662941
3.57	0.415168	491.575	-22.3199	-0.20787	0	-0.428167	-0.0119453	-14.1437	0.642191	-6.01413	449.948	20.4139	-0.209092	0	-0.891574	-0.187951	14.0616	0.637968
3.58	0.0158524	492.203	-21.652	-0.207158	0	-0.42823	-0.000458406	-14.2331	0.626116	-5.8937	451.037	19.6746	-0.208767	0	-0.891559	-0.184168	14.0941	0.6148
3.59	-0.462185	492.632	-20.9697	-0.206391	0	-0.428275	0.0134338	-14.3188	0.6095	-5.83098	452.351	19.0159	-0.20845	0	-0.891551	-0.182107	14.1273	0.593882
3.6	-1.01889	492.82	-20.2691	-0.205561	0	-0.428301	0.0297708	-14.3996	0.592237	-5.84564	453.905	18.446	-0.208135	0	-0.891556	-0.182394	14.1626	0.575547
3.61	-1.65097	492.775	-19.5459	-0.204673	0	-0.428306	0.0484988	-14.4757	0.574177	-5.95012	455.723	17.968	-0.207825	0	-0.891572	-0.185428	14.202	0.559949
3.62	-2.35114	492.555	-18.7958	-0.203732	0	-0.428293	0.0694432	-14.5481	0.555152	-6.14913	457.847	17.5796	-0.207523	0	-0.891603	-0.191357	14.2479	0.5470660000000001
3.63	-3.10921	492.267	-18.0151	-0.202752	0	-0.428267	0.092334	-14.6189	0.5349930000000001	-6.44032	460.337	17.2749	-0.207236	0	-0.891644	-0.200108	14.3032	0.536753
3.64	-3.91368	492.055	-17.2001	-0.201751	0	-0.428233	0.116847	-14.6908	0.513527	-6.81607	463.27	17.0457	-0.206973	0	-0.891691	-0.21144	14.371	0.528772
3.65	-4.75334	492.089	-16.3463	-0.200753	0	-0.4282	0.142649	-14.7677	0.490556	-7.2665	466.729	16.883	-0.206747	0	-0.891738	-0.225037	14.4542	0.52285
3.66	-5.61744	492.554	-15.4475	-0.199786	0	-0.428176	0.169402	-14.8537	0.465842	-7.78024	470.807	16.7779	-0.20657	0	-0.891781	-0.240532	14.5553	0.518702
3.67	-6.49712	493.638	-14.4983	-0.198881	0	-0.428171	0.196813	-14.9535	0.439187	-8.344659999999999	475.596	16.7217	-0.206453	0	-0.89181	-0.257519	14.6771	0.516037
3.68	-7.39032	495.535	-13.499	-0.198065	0	-0.428192	0.224779	-15.0718	0.410577	-8.948119999999999	481.189	16.7042	-0.206413	0	-0.891823	-0.275622	14.8217	0.514527
3.69	-8.30489	498.433	-12.4586	-0.197366	0	-0.428244	0.253485	-15.2134	0.380265	-9.58203	487.668	16.7143	-0.206459	0	-0.891811	-0.294557	14.9912	0.513806
3.7	-9.25681	502.506	-11.3935	-0.19681	0	-0.428333	0.283356	-15.382	0.348762	-10.2424	495.1	16.7404	-0.206602	0	-0.891767	-0.314181	15.1869	0.513505
3.71	-10.2639	507.901	-10.3248	-0.196417	0	-0.428459	0.31486	-15.5805	0.316726	-10.9292	503.534	16.7719	-0.206848	0	-0.891688	-0.33447	15.4098	0.513277
3.72	-11.3379	514.723	-9.27228	-0.196203	0	-0.428625	0.34826	-15.8104	0.284811	-11.6435	512.998	16.7964	-0.207198	0	-0.8915689999999999	-0.355432	15.6599	0.51273
3.73	-12.4797	523.011	-8.252190000000001	-0.19618	0	-0.428831	0.383473	-16.071	0.253571	-12.3845	523.496	16.7969	-0.207654	0	-0.891406	-0.377014	15.9364	0.511338
3.74	-13.6784	532.727	-7.27541	-0.196347	0	-0.429077	0.420042	-16.3592	0.223416	-13.1474	534.984	16.7513	-0.208213	0	-0.891194	-0.399042	16.2375	0.508427
3.75	-14.9135	543.755	-6.34889	-0.196701	0	-0.42936	0.45721	-16.6701	0.194641	-13.9208	547.352	16.6345	-0.208869	0	-0.890933	-0.42115	16.5592	0.5032450000000001
3.76	-16.1594	555.902	-5.47682	-0.197232	0	-0.429679	0.494085	-16.9971	0.167458	-14.6872	560.407	16.4221	-0.209611	0	-0.8906230000000001	-0.442776	16.8947	0.49508
3.77	-17.3888	568.9109999999999	-4.66104	-0.19792	0	-0.430031	0.5297460000000001	-17.3318	0.141998	-15.4213	573.876	16.0943	-0.21043	0	-0.890265	-0.463139	17.2349	0.483352
3.78	-18.5742	582.467	-3.90242	-0.198747	0	-0.430411	0.5633049999999999	-17.6646	0.11835	-16.0894	587.4349999999999	15.636	-0.211314	0	-0.889864	-0.4812	17.569	0.46764
3.79	-19.6878	596.217	-3.20233	-0.199692	0	-0.430816	0.593893	-17.9851	0.09659959999999999	-16.6495	600.73	15.0373	-0.212252	0	-0.889422	-0.495696	17.8852	0.447696
3.8	-20.6992	609.784	-2.56311	-0.200735	0	-0.43124	0.620588	-18.2821	0.0768452	-17.0569	613.4059999999999	14.296	-0.213241	0	-0.888943	-0.5053029999999999	18.1719	0.423513
